{"accessors" : [{"bufferView" : 0, "byteOffset" : 0, "componentType" : 5123, "count" : 3171, "type" : "SCALAR", "max" : [929], "min" : [0]}, {"bufferView" : 1, "byteOffset" : 0, "componentType" : 5126, "count" : 930, "type" : "VEC3", "max" : [228.58700561523438, 228.6199951171875, 304.42498779296875], "min" : [-228.61300659179688, -228.5800018310547, 0], "name" : "POSITION"}, {"bufferView" : 0, "byteOffset" : 6344, "componentType" : 5123, "count" : 30804, "type" : "SCALAR", "max" : [5135], "min" : [0]}, {"bufferView" : 2, "byteOffset" : 0, "componentType" : 5126, "count" : 5136, "type" : "VEC3", "max" : [-153.83999633789062, -45.19300079345703, 123.34700012207031], "min" : [-166.0240020751953, -57.37699890136719, 86.63400268554688], "name" : "POSITION"}, {"bufferView" : 0, "byteOffset" : 67952, "componentType" : 5123, "count" : 129447, "type" : "SCALAR", "max" : [21983], "min" : [0]}, {"bufferView" : 3, "byteOffset" : 0, "componentType" : 5126, "count" : 21984, "type" : "VEC3", "max" : [99.2040023803711, -21.65399932861328, 175.38400268554688], "min" : [-194.46600341796875, -150.05499267578125, 120.41300201416016], "name" : "POSITION"}, {"bufferView" : 0, "byteOffset" : 326848, "componentType" : 5123, "count" : 81303, "type" : "SCALAR", "max" : [15016], "min" : [0]}, {"bufferView" : 4, "byteOffset" : 0, "componentType" : 5126, "count" : 15017, "type" : "VEC3", "max" : [169.5970001220703, -13.845999717712402, 345.6189880371094], "min" : [-200.61300659179688, -193.23500061035156, 41.20199966430664], "name" : "POSITION"}, {"bufferView" : 0, "byteOffset" : 489456, "componentType" : 5123, "count" : 2778, "type" : "SCALAR", "max" : [620], "min" : [0]}, {"bufferView" : 5, "byteOffset" : 0, "componentType" : 5126, "count" : 621, "type" : "VEC3", "max" : [110.31800079345703, 188.04400634765625, 228.52099609375], "min" : [-175.21099853515625, -64.56700134277344, 76.19999694824219], "name" : "POSITION"}, {"bufferView" : 0, "byteOffset" : 495012, "componentType" : 5123, "count" : 191001, "type" : "SCALAR", "max" : [34411], "min" : [0]}, {"bufferView" : 6, "byteOffset" : 0, "componentType" : 5126, "count" : 34412, "type" : "VEC3", "max" : [149.8719940185547, 163.11300659179688, 408.56500244140625], "min" : [-200.61300659179688, -193.23500061035156, 76.19999694824219], "name" : "POSITION"}, {"bufferView" : 0, "byteOffset" : 877016, "componentType" : 5123, "count" : 3402, "type" : "SCALAR", "max" : [670], "min" : [0]}, {"bufferView" : 7, "byteOffset" : 0, "componentType" : 5126, "count" : 671, "type" : "VEC3", "max" : [156.8990020751953, -72.44999694824219, 244.4029998779297], "min" : [-33.58599853515625, -82.61199951171875, 53.90700149536133], "name" : "POSITION"}, {"bufferView" : 0, "byteOffset" : 883820, "componentType" : 5123, "count" : 1884, "type" : "SCALAR", "max" : [373], "min" : [0]}, {"bufferView" : 8, "byteOffset" : 0, "componentType" : 5126, "count" : 374, "type" : "VEC3", "max" : [-106.0510025024414, -119.87300109863281, 139.4550018310547], "min" : [-111.13099670410156, -132.572998046875, 134.375], "name" : "POSITION"}, {"bufferView" : 0, "byteOffset" : 887588, "componentType" : 5123, "count" : 999, "type" : "SCALAR", "max" : [330], "min" : [0]}, {"bufferView" : 9, "byteOffset" : 0, "componentType" : 5126, "count" : 331, "type" : "VEC3", "max" : [137.33599853515625, 158.28900146484375, 251.6439971923828], "min" : [-142.06300354003906, 59.29800033569336, 179.0260009765625], "name" : "POSITION"}, {"bufferView" : 0, "byteOffset" : 889588, "componentType" : 5123, "count" : 7725, "type" : "SCALAR", "max" : [1389], "min" : [0]}, {"bufferView" : 10, "byteOffset" : 0, "componentType" : 5126, "count" : 1390, "type" : "VEC3", "max" : [-123.60600280761719, 44.470001220703125, 138.46499633789062], "min" : [-164.48800659179688, -115.36900329589844, 129.74200439453125], "name" : "POSITION"}], "asset" : {"generator" : "Aspose.3D 24.6.0", "version" : "2.0"}, "buffers" : [{"uri" : "buffer.bin", "byteLength" : 1875476}], "bufferViews" : [{"buffer" : 0, "byteOffset" : 0, "byteLength" : 905040, "target" : 34963}, {"buffer" : 0, "byteOffset" : 905044, "byteLength" : 11160, "byteStride" : 12, "target" : 34962}, {"buffer" : 0, "byteOffset" : 916208, "byteLength" : 61632, "byteStride" : 12, "target" : 34962}, {"buffer" : 0, "byteOffset" : 977844, "byteLength" : 263808, "byteStride" : 12, "target" : 34962}, {"buffer" : 0, "byteOffset" : 1241656, "byteLength" : 180204, "byteStride" : 12, "target" : 34962}, {"buffer" : 0, "byteOffset" : 1421864, "byteLength" : 7452, "byteStride" : 12, "target" : 34962}, {"buffer" : 0, "byteOffset" : 1429320, "byteLength" : 412944, "byteStride" : 12, "target" : 34962}, {"buffer" : 0, "byteOffset" : 1842268, "byteLength" : 8052, "byteStride" : 12, "target" : 34962}, {"buffer" : 0, "byteOffset" : 1850324, "byteLength" : 4488, "byteStride" : 12, "target" : 34962}, {"buffer" : 0, "byteOffset" : 1854816, "byteLength" : 3972, "byteStride" : 12, "target" : 34962}, {"buffer" : 0, "byteOffset" : 1858792, "byteLength" : 16680, "byteStride" : 12, "target" : 34962}], "meshes" : [{"primitives" : [{"attributes" : {"POSITION" : 1}, "indices" : 0, "mode" : 4}], "name" : ""}, {"primitives" : [{"attributes" : {"POSITION" : 3}, "indices" : 2, "mode" : 4}], "name" : ""}, {"primitives" : [{"attributes" : {"POSITION" : 5}, "indices" : 4, "mode" : 4}], "name" : ""}, {"primitives" : [{"attributes" : {"POSITION" : 7}, "indices" : 6, "mode" : 4}], "name" : ""}, {"primitives" : [{"attributes" : {"POSITION" : 9}, "indices" : 8, "mode" : 4}], "name" : ""}, {"primitives" : [{"attributes" : {"POSITION" : 11}, "indices" : 10, "mode" : 4}], "name" : ""}, {"primitives" : [{"attributes" : {"POSITION" : 13}, "indices" : 12, "mode" : 4}], "name" : ""}, {"primitives" : [{"attributes" : {"POSITION" : 15}, "indices" : 14, "mode" : 4}], "name" : ""}, {"primitives" : [{"attributes" : {"POSITION" : 17}, "indices" : 16, "mode" : 4}], "name" : ""}, {"primitives" : [{"attributes" : {"POSITION" : 19}, "indices" : 18, "mode" : 4}], "name" : ""}], "nodes" : [{"mesh" : 0, "name" : "group_0_2829873"}, {"mesh" : 1, "name" : "group_0_6383466"}, {"mesh" : 2, "name" : "group_0_10988977"}, {"mesh" : 3, "name" : "group_0_12568524"}, {"mesh" : 4, "name" : "group_0_14275784"}, {"mesh" : 5, "name" : "group_0_14397239"}, {"mesh" : 6, "name" : "group_0_15277357"}, {"mesh" : 7, "name" : "group_0_16092209"}, {"mesh" : 8, "name" : "group_0_-1040164097"}, {"mesh" : 9, "name" : "group_0_-1023739142"}], "scene" : 0, "scenes" : [{"nodes" : [0, 1, 2, 3, 4, 5, 6, 7, 8, 9]}]}